<svg width="1200" height="900" viewBox="0 0 1200 900" fill="none" xmlns="http://www.w3.org/2000/svg">
  <defs>
    <linearGradient id="bg" x1="100" y1="40" x2="1080" y2="860" gradientUnits="userSpaceOnUse">
      <stop stop-color="#1D4ED8" stop-opacity="0.4"/>
      <stop offset="1" stop-color="#0F172A" stop-opacity="0.9"/>
    </linearGradient>
    <linearGradient id="panel" x1="170" y1="130" x2="1020" y2="760" gradientUnits="userSpaceOnUse">
      <stop stop-color="#334155"/>
      <stop offset="1" stop-color="#1E293B"/>
    </linearGradient>
    <linearGradient id="accent" x1="355" y1="250" x2="845" y2="470" gradientUnits="userSpaceOnUse">
      <stop stop-color="#60A5FA"/>
      <stop offset="1" stop-color="#A855F7"/>
    </linearGradient>
    <filter id="blur" x="0" y="0" width="1200" height="900" filterUnits="userSpaceOnUse" color-interpolation-filters="sRGB">
      <feGaussianBlur stdDeviation="36"/>
    </filter>
  </defs>

  <g filter="url(#blur)" opacity="0.5">
    <circle cx="970" cy="220" r="120" fill="#3B82F6"/>
    <circle cx="260" cy="720" r="110" fill="#A855F7"/>
  </g>

  <rect x="120" y="90" width="960" height="700" rx="44" fill="url(#bg)"/>
  <rect x="155" y="125" width="890" height="630" rx="34" fill="url(#panel)" stroke="#475569" stroke-opacity="0.65"/>

  <rect x="330" y="230" width="540" height="320" rx="26" fill="#0F172A" stroke="#64748B"/>
  <rect x="355" y="255" width="490" height="180" rx="16" fill="url(#accent)"/>
  <rect x="355" y="455" width="300" height="70" rx="14" fill="#1E293B"/>
  <rect x="675" y="455" width="170" height="70" rx="14" fill="#1E293B"/>

  <g transform="translate(350 535)">
    <path d="M130 125C92 125 70 96 66 61C63 35 77 17 99 14L145 7C155 6 166 9 173 16L204 45H316L347 16C354 9 365 6 375 7L421 14C443 17 457 35 454 61C450 96 428 125 390 125H130Z" fill="#0F172A" stroke="#64748B" stroke-width="10"/>
    <circle cx="190" cy="67" r="26" fill="#1E293B"/>
    <rect x="166" y="63" width="48" height="8" rx="4" fill="#94A3B8"/>
    <rect x="186" y="43" width="8" height="48" rx="4" fill="#94A3B8"/>
    <circle cx="330" cy="67" r="11" fill="#60A5FA"/>
    <circle cx="360" cy="47" r="11" fill="#A855F7"/>
    <circle cx="390" cy="67" r="11" fill="#22D3EE"/>
    <circle cx="360" cy="87" r="11" fill="#F59E0B"/>
  </g>
</svg>
